<svg aria-hidden="true" style="position: absolute; width: 0; height: 0; overflow: hidden;" version="1.1" xmlns="http://www.w3.org/2000/svg" xmlns:xlink="http://www.w3.org/1999/xlink">
<defs>
<symbol id="icon-chocolate" viewBox="0 0 32 32">
<path fill="#000" style="fill: var(--color1, #000)" d="M13.822 2.413l7.527 7.536 0.080-0.080c0.158-0.154 0.369-0.242 0.589-0.244s0.434 0.080 0.595 0.231l0.873 0.873c0.305 0.305 0.315 0.77 0.083 1.094l-0.004 0.007-0.143 0.192 6.16 6.16c0.55 0.55 0.55 1.43 0 1.98l-9.43 9.43c-0.55 0.55-1.43 0.55-1.98 0l-4.447-4.447c-0.074 0.093-0.167 0.169-0.272 0.224s-0.221 0.086-0.34 0.093c-0.119 0.007-0.237-0.012-0.348-0.054s-0.212-0.108-0.296-0.192l-2.6-2.6c-0.154-0.158-0.242-0.369-0.244-0.589s0.080-0.434 0.231-0.595l0.006-0.007 0.077-0.076-7.527-7.527c-0.55-0.55-0.55-1.43 0-1.98l9.43-9.43c0.55-0.55 1.43-0.55 1.98 0v0.001zM20.404 10.893l-1.756-1.755c-0.055-0.057-0.121-0.102-0.194-0.133s-0.151-0.047-0.231-0.047c-0.079 0-0.158 0.016-0.231 0.047s-0.139 0.076-0.194 0.133l-3.58 3.58c-0.057 0.056-0.102 0.123-0.132 0.197s-0.047 0.153-0.047 0.233 0.016 0.159 0.047 0.233c0.031 0.074 0.076 0.141 0.132 0.197l1.749 1.749 0.61-0.61-1.565-1.565 3.21-3.22 1.569 1.574 0.613-0.613zM15.328 15.965l-1.754-1.754c-0.055-0.057-0.121-0.102-0.194-0.133s-0.152-0.047-0.231-0.047c-0.079 0-0.158 0.016-0.231 0.047s-0.139 0.076-0.194 0.133l-3.59 3.59c-0.24 0.23-0.24 0.61 0 0.85l1.752 1.752 0.616-0.616-1.57-1.564 3.22-3.21 1.564 1.563 0.612-0.611zM8.822 8.193l3.58 3.58c0.24 0.24 0.62 0.24 0.85-0.010l3.58-3.58c0.057-0.054 0.102-0.119 0.133-0.192s0.047-0.15 0.047-0.228h0.010c0-0.15-0.060-0.31-0.18-0.43l-3.58-3.58c-0.056-0.057-0.123-0.102-0.197-0.133s-0.153-0.047-0.233-0.047c-0.080 0-0.159 0.016-0.233 0.047s-0.141 0.076-0.197 0.133l-3.58 3.59c-0.24 0.23-0.24 0.61 0 0.85zM3.752 13.263l3.58 3.58c0.24 0.24 0.62 0.24 0.85 0l3.58-3.58c0.058-0.055 0.104-0.122 0.135-0.196s0.046-0.154 0.045-0.234h0.010c0-0.16-0.060-0.31-0.18-0.43l-3.58-3.58c-0.055-0.057-0.121-0.102-0.194-0.133s-0.151-0.047-0.231-0.047c-0.079 0-0.158 0.016-0.231 0.047s-0.139 0.076-0.194 0.133l-3.59 3.59c-0.24 0.23-0.24 0.61 0 0.85zM10.685 22.017l2.362 2.363 9.636-13.040-0.655-0.655-11.343 11.332z"></path>
<path fill="#fd9222" style="fill: var(--color2, #fd9222)" d="M13.822 2.413l7.527 7.536 0.080-0.080c0.158-0.154 0.369-0.242 0.589-0.244s0.434 0.080 0.595 0.231l0.873 0.873c0.305 0.305 0.315 0.77 0.083 1.094l-0.004 0.007-0.143 0.192 6.16 6.16c0.55 0.55 0.55 1.43 0 1.98l-9.43 9.43c-0.55 0.55-1.43 0.55-1.98 0l-4.447-4.447c-0.074 0.093-0.167 0.169-0.272 0.224s-0.221 0.086-0.34 0.093c-0.119 0.007-0.237-0.012-0.348-0.054s-0.212-0.108-0.296-0.192l-2.6-2.6c-0.154-0.158-0.242-0.369-0.244-0.589s0.080-0.434 0.231-0.595l0.006-0.007 0.077-0.076-7.527-7.527c-0.55-0.55-0.55-1.43 0-1.98l9.43-9.43c0.55-0.55 1.43-0.55 1.98 0v0.001zM20.404 10.893l-1.756-1.755c-0.055-0.057-0.121-0.102-0.194-0.133s-0.151-0.047-0.231-0.047c-0.079 0-0.158 0.016-0.231 0.047s-0.139 0.076-0.194 0.133l-3.58 3.58c-0.057 0.056-0.102 0.123-0.132 0.197s-0.047 0.153-0.047 0.233 0.016 0.159 0.047 0.233c0.031 0.074 0.076 0.141 0.132 0.197l1.749 1.749 0.61-0.61-1.565-1.565 3.21-3.22 1.569 1.574 0.613-0.613zM15.328 15.965l-1.754-1.754c-0.055-0.057-0.121-0.102-0.194-0.133s-0.152-0.047-0.231-0.047c-0.079 0-0.158 0.016-0.231 0.047s-0.139 0.076-0.194 0.133l-3.59 3.59c-0.24 0.23-0.24 0.61 0 0.85l1.752 1.752 0.616-0.616-1.57-1.564 3.22-3.21 1.564 1.563 0.612-0.611zM8.822 8.193l3.58 3.58c0.24 0.24 0.62 0.24 0.85-0.010l3.58-3.58c0.057-0.054 0.102-0.119 0.133-0.192s0.047-0.15 0.047-0.228h0.010c0-0.15-0.060-0.31-0.18-0.43l-3.58-3.58c-0.056-0.057-0.123-0.102-0.197-0.133s-0.153-0.047-0.233-0.047c-0.080 0-0.159 0.016-0.233 0.047s-0.141 0.076-0.197 0.133l-3.58 3.59c-0.24 0.23-0.24 0.61 0 0.85zM3.752 13.263l3.58 3.58c0.24 0.24 0.62 0.24 0.85 0l3.58-3.58c0.058-0.055 0.104-0.122 0.135-0.196s0.046-0.154 0.045-0.234h0.010c0-0.16-0.060-0.31-0.18-0.43l-3.58-3.58c-0.055-0.057-0.121-0.102-0.194-0.133s-0.151-0.047-0.231-0.047c-0.079 0-0.158 0.016-0.231 0.047s-0.139 0.076-0.194 0.133l-3.59 3.59c-0.24 0.23-0.24 0.61 0 0.85zM10.685 22.017l2.362 2.363 9.636-13.040-0.655-0.655-11.343 11.332z"></path>
</symbol>
<symbol id="icon-coin" viewBox="0 0 32 32">
<path fill="#fd9222" style="fill: var(--color2, #fd9222)" d="M16 2.667c-7.333 0-13.333 6-13.333 13.333s6 13.333 13.333 13.333c7.333 0 13.333-6 13.333-13.333s-6-13.333-13.333-13.333zM16 26.667c-5.867 0-10.667-4.8-10.667-10.667s4.8-10.667 10.667-10.667c5.867 0 10.667 4.8 10.667 10.667s-4.8 10.667-10.667 10.667z"></path>
<path fill="#fd9222" style="fill: var(--color2, #fd9222)" d="M17.733 14.667h-3.467c-0.667 0-1.2-0.533-1.2-1.2s0.533-1.2 1.2-1.2h4.933c0.8 0 1.333-0.533 1.333-1.333s-0.533-1.333-1.333-1.333h-1.867v-1.2c0-0.8-0.533-1.333-1.333-1.333s-1.333 0.533-1.333 1.333v1.2h-0.4c-2.133 0-3.867 1.733-3.867 3.867s1.733 3.867 3.867 3.867h3.333c0.667 0 1.2 0.533 1.2 1.2s-0.533 1.2-1.2 1.2h-4.933c-0.8 0-1.333 0.533-1.333 1.333s0.533 1.333 1.333 1.333h2v1.2c0 0.8 0.533 1.333 1.333 1.333s1.333-0.533 1.333-1.333v-1.2h0.4c2.133 0 3.867-1.733 3.867-3.867s-1.733-3.867-3.867-3.867z"></path>
</symbol>
<symbol id="icon-hamburger" viewBox="0 0 32 32">
<path stroke-linejoin="round" stroke-linecap="round" stroke-miterlimit="4" stroke-width="2.5" d="M4 16h24M4 8h24M4 24h24"></path>
</symbol>
<symbol id="icon-instagram" viewBox="0 0 32 32">
<path d="M9.333 4c-2.946 0-5.333 2.388-5.333 5.333v13.333c0 2.945 2.388 5.333 5.333 5.333h13.333c2.945 0 5.333-2.388 5.333-5.333v-13.333c0-2.946-2.388-5.333-5.333-5.333h-13.333zM1.333 9.333c0-4.418 3.582-8 8-8h13.333c4.418 0 8 3.582 8 8v13.333c0 4.418-3.582 8-8 8h-13.333c-4.418 0-8-3.582-8-8v-13.333z"></path>
<path d="M16.645 11.986c-0.832-0.123-1.682 0.019-2.429 0.406s-1.352 1.001-1.731 1.752c-0.378 0.752-0.51 1.603-0.376 2.434s0.526 1.598 1.121 2.193c0.595 0.595 1.362 0.987 2.193 1.121s1.682 0.002 2.434-0.376c0.752-0.378 1.365-0.984 1.752-1.731s0.53-1.597 0.406-2.429c-0.126-0.849-0.521-1.635-1.128-2.242s-1.393-1.002-2.242-1.128zM12.987 10.025c1.245-0.646 2.661-0.883 4.048-0.677 1.415 0.21 2.725 0.869 3.736 1.881s1.671 2.321 1.881 3.736c0.206 1.387-0.031 2.804-0.677 4.048s-1.668 2.254-2.92 2.885c-1.253 0.63-2.672 0.85-4.056 0.627s-2.663-0.876-3.655-1.868c-0.992-0.991-1.645-2.27-1.868-3.655s-0.003-2.804 0.627-4.056c0.63-1.253 1.64-2.274 2.884-2.92z"></path>
<path d="M22 8.667c0-0.736 0.597-1.333 1.333-1.333h0.013c0.736 0 1.333 0.597 1.333 1.333s-0.597 1.333-1.333 1.333h-0.013c-0.736 0-1.333-0.597-1.333-1.333z"></path>
</symbol>
<symbol id="icon-logo-chocolate" viewBox="0 0 32 32">
<path fill="#fcf1e0" style="fill: var(--color3, #fcf1e0)" d="M3.944 20.076l10.777-17.424 0.64-0.674 8.236 5.491 0.056 3.314 2.010 3.28-8.88 14.077-12.839-8.063z"></path>
<path fill="none" stroke="#fd9222" style="stroke: var(--color2, #fd9222)" stroke-linejoin="round" stroke-linecap="round" stroke-miterlimit="4" stroke-width="2.6667" d="M21.635 23.88l-14.185-8.864M11.361 8.599l14.185 8.864M10.63 25.864l11.736-19.25M27.176 14.789c-3.040-1.899-4.234-3.384-2.278-6.592l-9.626-6.015-11.736 19.25 14.186 8.864 9.454-15.507z"></path>
</symbol>
<symbol id="icon-rr-angle" viewBox="0 0 32 32">
<path  d="M16.947 17.867c-0.124 0.125-0.271 0.224-0.434 0.292s-0.337 0.103-0.513 0.103-0.35-0.035-0.513-0.103c-0.162-0.068-0.31-0.167-0.434-0.292l-6.107-6.12c-0.124-0.125-0.271-0.224-0.434-0.292s-0.337-0.103-0.513-0.103c-0.176 0-0.35 0.035-0.513 0.103s-0.31 0.167-0.434 0.292c-0.248 0.25-0.388 0.588-0.388 0.94s0.139 0.69 0.388 0.94l6.12 6.12c0.75 0.749 1.767 1.17 2.827 1.17s2.077-0.421 2.827-1.17l6.12-6.12c0.246-0.248 0.385-0.584 0.387-0.933 0.001-0.175-0.033-0.349-0.099-0.512s-0.164-0.31-0.288-0.435c-0.124-0.125-0.271-0.224-0.434-0.292s-0.337-0.103-0.513-0.103-0.35 0.035-0.513 0.103c-0.162 0.068-0.31 0.167-0.434 0.292l-6.107 6.12z"></path>
</symbol>
<symbol id="icon-spoon" viewBox="0 0 32 32">
<path fill="#fd9222" style="fill: var(--color2, #fd9222)" d="M15.451 14.106c-0.783-0.95-1.177-2.116-1.177-3.282 0-4.324 5.181-8.642 10.362-8.642 2.86 0 5.181 2.321 5.181 5.182 0 5.182-4.317 10.364-8.646 10.364-1.166 0-2.332-0.394-3.281-1.177l-12.758 12.761c-0.675 0.675-1.77 0.675-2.445 0s-0.675-1.771 0-2.445l12.764-12.761z"></path>
</symbol>
<symbol id="icon-twitter" viewBox="0 0 32 32">
<path d="M19.367 3.134c1.398-0.534 2.927-0.625 4.379-0.262 1.155 0.289 2.217 0.854 3.097 1.642 1.083-0.398 2.11-0.937 3.055-1.603 0.454-0.32 1.059-0.325 1.519-0.013s0.677 0.878 0.545 1.418c-0.457 1.875-1.372 3.604-2.66 5.032 0.020 0.215 0.030 0.431 0.031 0.648v0.004c0 8.133-3.916 14.1-9.54 17.094-5.592 2.976-12.739 2.943-19.107-0.595-0.54-0.3-0.803-0.931-0.636-1.526s0.72-0.997 1.337-0.972c2.251 0.090 4.479-0.359 6.505-1.293-4.788-2.975-6.4-7.326-6.72-11.072-0.18-2.109 0.045-4.023 0.311-5.402 0.133-0.692 0.278-1.258 0.392-1.654 0.057-0.199 0.106-0.356 0.142-0.466 0.018-0.055 0.033-0.099 0.043-0.13l0.013-0.038 0.004-0.012 0.001-0.004 0.001-0.002c0-0.001 0-0.001 1.255 0.451l-1.254-0.452c0.169-0.468 0.584-0.804 1.077-0.87s0.982 0.148 1.268 0.555c1.278 1.82 3.592 4.138 5.416 5.057 1.509 0.76 3.149 1.213 4.825 1.339-0.010-1.48 0.43-2.928 1.261-4.152 0.841-1.238 2.041-2.189 3.44-2.722zM4.001 7.304c-0.183 1.143-0.303 2.574-0.173 4.106 0.302 3.533 1.918 7.611 7.38 10.039 0.442 0.197 0.743 0.618 0.787 1.1s-0.179 0.95-0.579 1.222c-1.481 1.005-3.103 1.762-4.802 2.251 4.227 1.077 8.463 0.563 11.927-1.281 4.708-2.506 8.126-7.539 8.126-14.737-0.001-0.288-0.029-0.576-0.083-0.859-0.084-0.437 0.057-0.887 0.373-1.2 0.297-0.293 0.572-0.605 0.824-0.934-0.302 0.111-0.608 0.214-0.917 0.307-0.502 0.151-1.046-0.006-1.391-0.402-0.624-0.717-1.453-1.226-2.375-1.456s-1.893-0.173-2.781 0.166c-0.888 0.339-1.651 0.942-2.184 1.729s-0.813 1.718-0.801 2.668l0 0.018h-0v1.333c0 0.723-0.576 1.314-1.299 1.333-2.563 0.066-5.103-0.502-7.393-1.655-1.577-0.794-3.269-2.26-4.641-3.748z"></path>
</symbol>
<symbol id="icon-x-mark" viewBox="0 0 32 32">

<path stroke-linejoin="round" stroke-linecap="round" stroke-miterlimit="4" stroke-width="2.9091" d="M24 8l-16 16"></path>
<path stroke-linejoin="round" stroke-linecap="round" stroke-miterlimit="4" stroke-width="2.9091" d="M8 8l16 16"></path>

<symbol id="icon-play" viewBox="0 0 32 32">
<path fill="#f5f4f4" style="fill: var(--color1, #f5f4f4)" d="M11.886 23.771v-13.714l12.8 6.857-12.8 6.857z"></path>
<path fill="none" stroke="#fff" style="stroke: var(--color2, #fff)" stroke-linejoin="miter" stroke-linecap="butt" stroke-miterlimit="4" stroke-width="0.9143" d="M31.543 16c0 8.584-6.959 15.543-15.543 15.543s-15.543-6.959-15.543-15.543c0-8.584 6.959-15.543 15.543-15.543s15.543 6.959 15.543 15.543z"></path>
</symbol>
</symbol>
<symbol id="icon-flag-ua" viewBox="0 0 40 32">
<path fill="#ffd700" style="fill: var(--color1, #ffd700)" d="M40.209 0.495h-39.902v29.695h39.902v-29.695z"></path>
<path fill="#0057b7" style="fill: var(--color2, #0057b7)" d="M0.307 0.495h39.902v14.847h-39.902v-14.847z"></path>
</symbol>

<symbol id="icon-mastercard" viewBox="0 0 47 32">
<path fill="#fafafa" style="fill: var(--color1, #fafafa)" d="M4.267 0.533h38.4c2.062 0 3.733 1.671 3.733 3.733v23.467c0 2.062-1.671 3.733-3.733 3.733h-38.4c-2.062 0-3.733-1.671-3.733-3.733v-23.467c0-2.062 1.671-3.733 3.733-3.733z"></path>
<path fill="#ed0006" style="fill: var(--color2, #ed0006)" d="M23.467 23.29c-1.704 1.462-3.915 2.345-6.331 2.345-5.39 0-9.76-4.396-9.76-9.818s4.37-9.818 9.76-9.818c2.416 0 4.627 0.883 6.331 2.345 1.704-1.462 3.915-2.345 6.331-2.345 5.391 0 9.76 4.395 9.76 9.818s-4.37 9.818-9.76 9.818c-2.416 0-4.627-0.883-6.331-2.345z"></path>
<path fill="#f9a000" style="fill: var(--color3, #f9a000)" d="M23.467 23.29c2.099-1.801 3.429-4.48 3.429-7.472s-1.331-5.672-3.429-7.472c1.704-1.462 3.915-2.345 6.331-2.345 5.391 0 9.76 4.395 9.76 9.818s-4.37 9.818-9.76 9.818c-2.416 0-4.627-0.883-6.331-2.345z"></path>
<path fill="#ff5e00" style="fill: var(--color4, #ff5e00)" d="M23.467 23.29c2.099-1.801 3.429-4.48 3.429-7.472s-1.331-5.672-3.429-7.472c-2.099 1.801-3.429 4.48-3.429 7.472s1.331 5.672 3.429 7.472z"></path>
<path fill="none" stroke="#fafafa" style="stroke: var(--color1, #fafafa)" stroke-linejoin="miter" stroke-linecap="butt" stroke-miterlimit="4" stroke-width="1.0667" d="M4.267 0.533h38.4c2.062 0 3.733 1.671 3.733 3.733v23.467c0 2.062-1.671 3.733-3.733 3.733h-38.4c-2.062 0-3.733-1.671-3.733-3.733v-23.467c0-2.062 1.671-3.733 3.733-3.733z"></path>
</symbol>

</defs>
</svg>
